<svg width="125" height="34" viewBox="0 0 125 34" fill="none" xmlns="http://www.w3.org/2000/svg"><g><g clip-path="url(#clip0_505_7033)"><g><path d="M19.5145 0L0 16.1243V34L19.5145 16.1243L39.0365 34V16.1243L19.5145 0Z" fill="#404551"></path><path d="M10.9224 23.9947L19.5145 0L0 16.1243L10.9224 23.9947Z" fill="#85888F"></path><path d="M19.5144 0L28.114 23.9947L39.0364 16.1243L19.5144 0Z" fill="#85888F"></path></g><g><g id="Group_3"><path d="M92.9644 9.56931H97.1214L103.744 24.6637H99.1209L97.9858 21.9876H91.9872L90.8746 24.6637H86.3418L92.9644 9.56931ZM96.738 18.7552L95.0015 14.493L93.25 18.7552H96.738Z" fill="#333333"></path></g><path d="M67.5188 9.67453H72.0742L75.7876 15.4778L79.5011 9.67453H84.0565V24.6637H79.7642V16.0566L75.7876 21.9275H75.6974L71.7434 16.1017V24.6712H67.5188V9.67453Z" fill="#333333"></path><path id="Vector_6" d="M106.021 9.67453H110.359V24.6637H106.021V9.67453Z" fill="#333333"></path><path id="Vector_7" d="M112.637 9.67453H116.952V21.0254H124.484V24.6637H112.637V9.67453Z" fill="#333333"></path><path id="Vector_8" d="M65.2487 17.1766L59.0621 9.68958H53.8903H52.2064H48.9666V24.6712H53.8903H59.0621L65.2487 17.1766ZM53.8828 11.5238L59.0545 17.1766L53.8828 22.8295V11.5238Z" fill="url(#paint0_linear_505_7033)"></path></g></g></g><defs><linearGradient id="paint0_linear_505_7033" x1="57.1076" y1="9.68961" x2="57.1076" y2="24.6712" gradientUnits="userSpaceOnUse"><stop stop-color="#E9361A"></stop><stop offset="1" stop-color="#BF2B15"></stop></linearGradient><clipPath id="clip0_505_7033"><rect width="124.484" height="34" fill="white"></rect></clipPath></defs></svg>