<svg xmlns="http://www.w3.org/2000/svg" width="20.43" height="25" viewBox="0 0 20.43 25"><defs><style>.a{fill:#fff;}</style></defs><g transform="translate(-27.875)"><path class="a" d="M28.929,75.582c-2.114,3.668-.77,9.233,1.567,12.608,1.167,1.687,2.348,3.2,3.966,3.2l.092,0a4.9,4.9,0,0,0,1.84-.49,5.04,5.04,0,0,1,2.18-.517,4.74,4.74,0,0,1,2.075.5,4.4,4.4,0,0,0,1.988.477c1.822-.034,2.941-1.668,3.928-3.11a13.785,13.785,0,0,0,1.721-3.525l.007-.022a.2.2,0,0,0-.109-.251l-.015-.006a5.223,5.223,0,0,1-3.165-4.784,5.377,5.377,0,0,1,2.541-4.495l.02-.012a.2.2,0,0,0,.058-.288,5.913,5.913,0,0,0-4.651-2.526c-.132-.013-.269-.02-.406-.02a8.107,8.107,0,0,0-2.919.729,4.692,4.692,0,0,1-1.4.418,4.575,4.575,0,0,1-1.446-.423,7.008,7.008,0,0,0-2.549-.647h-.065A6.251,6.251,0,0,0,28.929,75.582Z" transform="translate(0 -66.392)"/><path class="a" d="M154.365,0A5.708,5.708,0,0,0,150.6,1.933,5.348,5.348,0,0,0,149.243,5.9a.2.2,0,0,0,.187.177c.087.007.176.01.265.01a4.828,4.828,0,0,0,3.557-1.824A5.638,5.638,0,0,0,154.577.183.206.206,0,0,0,154.365,0Z" transform="translate(-111.39 0)"/></g></svg>