<svg xmlns="http://www.w3.org/2000/svg" width="23.5" height="23.5" viewBox="0 0 23.5 23.5"><defs><style>.a{fill:#fff;}</style></defs><path class="a" d="M20.335,0H3.169A3.167,3.167,0,0,0,0,3.167V20.333A3.167,3.167,0,0,0,3.169,23.5h8.466l.014-8.4H9.468a.515.515,0,0,1-.515-.513l-.01-2.707a.515.515,0,0,1,.515-.517h2.178V8.75c0-3.035,1.854-4.688,4.562-4.688h2.222a.515.515,0,0,1,.515.515V6.86a.515.515,0,0,1-.515.515H17.055c-1.473,0-1.758.7-1.758,1.727v2.264h3.236a.515.515,0,0,1,.511.575l-.321,2.707a.515.515,0,0,1-.511.454h-2.9L15.3,23.5h5.038A3.167,3.167,0,0,0,23.5,20.334V3.167A3.167,3.167,0,0,0,20.335,0Z" transform="translate(-0.002)"/></svg>