<svg xmlns="http://www.w3.org/2000/svg" width="22.996" height="23.024" viewBox="0 0 22.996 23.024"><defs><style>.a{fill:#fff;stroke:#fff;}</style></defs><g transform="translate(0.134 0.524)"><path class="a" d="M2.565,22a2.2,2.2,0,0,1-2.2-2.2V2.2A2.186,2.186,0,0,1,3.542.237l17.6,8.805a2.186,2.186,0,0,1,0,3.918l-17.6,8.805A2.185,2.185,0,0,1,2.565,22Zm0-20.9a1.1,1.1,0,0,0-1.1,1.1V19.8a1.1,1.1,0,0,0,1.588.983l17.6-8.8a1.086,1.086,0,0,0,0-1.952L3.047,1.22A1.083,1.083,0,0,0,2.565,1.1Zm0,0" transform="translate(0 0)"/><path class="a" d="M49.563,7.411l.778-.778L64.034,20.327l-.778.778Zm0,0" transform="translate(-46.66 -6.29)"/><path class="a" d="M49.7,153.165l13.692-13.692.778.778L50.473,153.942Zm0,0" transform="translate(-46.786 -132.282)"/></g></svg>