<svg xmlns="http://www.w3.org/2000/svg" width="24" height="24" viewBox="0 0 24 24"><path d="M22.4 6.52c-1.07-1.84-2.53-3.3-4.37-4.37C16.18 1.08 14.18.54 12 .54s-4.19.54-6.03 1.61-3.3 2.53-4.37 4.37-1.61 3.85-1.61 6.02c0 2.62.76 4.97 2.29 7.06s3.5 3.54 5.92 4.34c.28.05.49.02.62-.11a.6.6 0 00.2-.47c0-.03 0-.31-.01-.84s-.01-1-.01-1.39l-.36.06c-.23.04-.52.06-.87.05-.35-.01-.71-.04-1.08-.11-.38-.07-.72-.22-1.05-.47s-.53-.56-.67-.96l-.16-.36c-.1-.24-.27-.5-.49-.8-.22-.29-.45-.49-.68-.59l-.11-.08a1.19 1.19 0 01-.2-.19.898.898 0 01-.14-.22c-.03-.07-.01-.13.08-.18.08-.05.24-.06.45-.06l.31.05c.21.04.47.16.77.38.31.21.56.48.76.81.24.43.53.76.87.97.34.22.68.33 1.02.33s.64-.03.89-.08.48-.13.7-.24c.09-.7.35-1.24.77-1.61-.59-.06-1.13-.16-1.6-.28-.48-.13-.96-.33-1.47-.61s-.93-.63-1.26-1.05-.61-.96-.82-1.64-.32-1.46-.32-2.34c0-1.26.41-2.33 1.24-3.22-.4-.93-.36-1.99.1-3.17.3-.09.75-.02 1.35.21s1.03.44 1.3.6c.27.17.49.31.66.43.97-.27 1.97-.41 3-.41s2.03.14 3 .41l.59-.37c.41-.25.89-.48 1.44-.69.55-.21.97-.27 1.27-.17.47 1.18.51 2.24.13 3.19.82.89 1.24 1.96 1.24 3.22 0 .89-.11 1.67-.32 2.35-.21.68-.49 1.23-.83 1.64s-.76.76-1.27 1.04-1 .49-1.47.61a10 10 0 01-1.6.28c.54.47.81 1.21.81 2.22v3.3c0 .19.07.35.2.47.13.13.33.16.62.11 2.42-.81 4.39-2.25 5.92-4.34 1.53-2.09 2.29-4.44 2.29-7.06 0-2.19-.54-4.2-1.61-6.04z" fill="#fff"/></svg>