<svg xmlns="http://www.w3.org/2000/svg" width="24.838" height="24.838" viewBox="0 0 24.838 24.838"><defs><style>.a{fill:#fff;}</style></defs><path class="a" d="M17.983,0H6.854A6.862,6.862,0,0,0,0,6.854V17.984a6.862,6.862,0,0,0,6.854,6.854H17.983a6.862,6.862,0,0,0,6.855-6.854V6.854A6.862,6.862,0,0,0,17.983,0Zm4.651,17.984a4.656,4.656,0,0,1-4.651,4.651H6.854A4.656,4.656,0,0,1,2.2,17.984V6.854A4.656,4.656,0,0,1,6.854,2.2H17.983a4.656,4.656,0,0,1,4.651,4.651V17.984Z"/><path class="a" d="M47.368,40.97a6.4,6.4,0,1,0,6.4,6.4A6.407,6.407,0,0,0,47.368,40.97Zm0,10.6a4.2,4.2,0,1,1,4.2-4.2A4.2,4.2,0,0,1,47.368,51.566Z" transform="translate(-34.949 -34.951)"/><path class="a" d="M120.537,28.251a1.615,1.615,0,1,0,1.143.473A1.622,1.622,0,0,0,120.537,28.251Z" transform="translate(-101.45 -24.1)"/></svg>