<svg xmlns="http://www.w3.org/2000/svg" width="25.246" height="21" viewBox="0 0 25.246 21"><defs><style>.a{fill:#fff;}</style></defs><path class="a" d="M24.845,36.934a10,10,0,0,1-1.741.587,5.427,5.427,0,0,0,1.433-2.282h0a.285.285,0,0,0-.416-.331h0a10.045,10.045,0,0,1-2.661,1.1.678.678,0,0,1-.166.021.705.705,0,0,1-.466-.178,5.443,5.443,0,0,0-3.6-1.359,5.819,5.819,0,0,0-1.724.266,5.273,5.273,0,0,0-3.554,3.8,5.806,5.806,0,0,0-.129,2,.2.2,0,0,1-.049.153.2.2,0,0,1-.15.068H11.6A14.272,14.272,0,0,1,1.791,35.54h0a.285.285,0,0,0-.466.036h0a5.449,5.449,0,0,0,.885,6.616,4.878,4.878,0,0,1-1.241-.481h0a.285.285,0,0,0-.423.245h0a5.45,5.45,0,0,0,3.179,5.021H3.608a4.9,4.9,0,0,1-.917-.087h0a.285.285,0,0,0-.324.366h0a5.455,5.455,0,0,0,4.309,3.71A10.044,10.044,0,0,1,1.05,52.677H.421a.417.417,0,0,0-.407.314.431.431,0,0,0,.206.476,14.939,14.939,0,0,0,7.507,2.024,15.144,15.144,0,0,0,6.415-1.361,14.166,14.166,0,0,0,4.694-3.517A15.42,15.42,0,0,0,21.709,45.8a15.206,15.206,0,0,0,.977-5.268v-.083a.926.926,0,0,1,.347-.721A10.758,10.758,0,0,0,25.2,37.352h0a.285.285,0,0,0-.352-.418Z" transform="translate(0 -34.491)"/></svg>